# xmcd
#
# Track frame offsets: 
#        150
#        29270
#        52817
#        70285
#        85070
#        102037
#        118667
#        136055
#        154025
#        171247
#        187712
#        208352
#
# Disc length: 3118 seconds
#
# Revision: 6
# Processed by: cddbd v1.5.2PL0 Copyright (c) Steve Scherf et al.
# Submitted via: ExactAudioCopyFreeDBPlugin 1.0
#
DISCID=970c2c0c
DTITLE=Chris Jones - Roadhouses and Automobiles
DYEAR=2003
DGENRE=Folk
TTITLE0=Roadhouses and Automobiles
TTITLE1=Thank You (R.J. Reynolds)
TTITLE2=Darlin' Cory
TTITLE3=The Last Fallen Leaf
TTITLE4=No Sanctuary Here
TTITLE5=Fender Bender
TTITLE6=God Moves On The Water
TTITLE7=Set 'em Up, Joe
TTITLE8=Jolanda's Wedding March
TTITLE9=Hoof Jelly
TTITLE10=Don't Need Your Religion
TTITLE11=Cold Creature
EXTD=
EXTT0=
EXTT1=
EXTT2=
EXTT3=
EXTT4=
EXTT5=
EXTT6=
EXTT7=
EXTT8=
EXTT9=
EXTT10=
EXTT11=
PLAYORDER=
